<?xml version="1.0" standalone="no"?>
<!DOCTYPE svg PUBLIC "-//W3C//DTD SVG 20010904//EN"
 "http://www.w3.org/TR/2001/REC-SVG-20010904/DTD/svg10.dtd">
<svg version="1.0" xmlns="http://www.w3.org/2000/svg"
 width="500.000000pt" height="500.000000pt" viewBox="0 0 500.000000 500.000000"
 preserveAspectRatio="xMidYMid meet">
<metadata>
Created by potrace 1.14, written by Peter Selinger 2001-2017
</metadata>
<g transform="translate(0.000000,500.000000) scale(0.100000,-0.100000)"
fill="#000000" stroke="none">
<path d="M3348 4773 l-3 -98 -180 -5 -180 -5 3 -55 c1 -30 0 -69 -3 -87 l-6
-32 -87 -3 -87 -3 0 -65 c-1 -123 21 -110 -185 -110 -164 0 -180 -2 -182 -17
-1 -10 -2 -54 -2 -98 l-1 -80 -185 -5 -185 -5 -3 -87 -3 -88 -554 0 -555 0 0
-270 0 -270 85 0 85 0 0 -100 0 -100 280 0 280 0 0 -180 0 -180 -172 -2 -173
-3 -5 -95 -5 -95 -100 -5 -100 -5 -5 -270 -5 -270 -82 -3 -83 -3 0 -359 0
-359 83 -3 82 -3 0 -370 0 -370 -67 -3 -68 -3 0 -269 0 -270 1363 0 c750 0
1451 3 1558 6 l194 7 0 261 0 261 -95 5 -95 5 -3 88 -3 87 -85 0 -85 0 3 98 3
97 81 3 81 3 6 65 c4 36 4 217 0 402 -3 186 -2 444 2 574 l7 238 182 2 181 3
0 275 0 275 -95 5 -95 5 -3 88 -3 87 -77 0 c-47 0 -83 5 -90 12 -7 7 -12 43
-12 90 l0 78 -88 0 c-55 0 -92 4 -100 12 -13 13 -16 410 -4 503 l7 50 92 3 93
3 2 187 3 187 87 3 88 3 2 354 c2 195 2 360 0 365 -2 6 -135 10 -367 10 l-364
0 -3 -97z m570 -175 l3 -98 -89 0 c-104 0 -100 5 -97 -107 l2 -72 -91 -3 -91
-3 -5 -90 -5 -90 -83 4 c-54 2 -88 -1 -97 -9 -11 -9 -15 -36 -15 -106 l0 -94
-177 -2 -178 -3 -3 -87 -3 -88 -189 0 -190 0 0 -85 0 -85 90 0 90 0 0 -84 c0
-56 4 -87 12 -92 7 -4 94 -8 193 -8 l180 -1 3 -92 3 -93 -291 0 -290 0 0 84
c0 78 -1 84 -22 90 -13 3 -139 6 -280 6 l-257 0 -3 83 -3 82 -415 6 c-228 3
-434 7 -457 8 l-43 1 0 90 0 90 563 2 562 3 3 97 3 98 177 2 177 3 3 85 c2 51
8 88 15 93 7 4 84 7 172 5 l160 -3 5 90 5 90 97 3 97 3 3 97 3 97 183 3 182 2
0 84 c0 45 3 86 7 90 4 3 90 5 192 4 l186 -3 3 -97z m-1878 -1783 l0 -185 -90
0 -90 0 0 185 0 185 90 0 90 0 0 -185z m560 -195 l0 -180 -100 0 -100 0 0 180
0 180 100 0 100 0 0 -180z m-1105 -905 l0 -190 -187 -3 -188 -2 0 195 0 195
188 -2 187 -3 0 -190z m940 -380 l0 -190 -198 -3 -197 -2 0 188 c0 104 3 191
6 195 3 3 92 5 198 4 l191 -2 0 -190z"/>
</g>
</svg>
