<?xml version="1.0" standalone="no"?>
<!DOCTYPE svg PUBLIC "-//W3C//DTD SVG 20010904//EN"
 "http://www.w3.org/TR/2001/REC-SVG-20010904/DTD/svg10.dtd">
<svg version="1.0" xmlns="http://www.w3.org/2000/svg"
 width="640.000000pt" height="640.000000pt" viewBox="0 0 640.000000 640.000000"
 preserveAspectRatio="xMidYMid meet">
<metadata>
Created by potrace 1.14, written by Peter Selinger 2001-2017
</metadata>
<g transform="translate(0.000000,640.000000) scale(0.100000,-0.100000)"
fill="#000000" stroke="none">
<path d="M0 3200 l0 -3200 3200 0 3200 0 0 3200 0 3200 -3200 0 -3200 0 0
-3200z m4090 2260 l0 -30 -87 2 c-49 0 -72 3 -53 5 19 3 39 8 45 13 5 4 25 11
43 15 18 3 30 11 26 16 -3 5 2 9 10 9 11 0 16 -9 16 -30z m404 -22 c7 -5 4 -8
-6 -8 -12 0 -18 7 -17 23 0 15 2 17 6 7 3 -8 11 -18 17 -22z m-41 -31 c2 -6 4
-46 3 -87 l-1 -75 -93 0 c-50 0 -92 -3 -92 -7 0 -5 41 -8 90 -8 l90 0 0 -82 0
-83 -83 -1 c-45 -1 -127 -2 -182 -3 l-101 -1 6 -42 5 -43 3 38 3 38 82 -3 82
-3 3 -82 3 -83 -63 -2 -63 -2 63 -3 62 -4 0 -84 0 -85 -87 0 -88 0 3 84 c3 78
5 85 25 89 12 2 -9 5 -47 6 -38 0 -66 -2 -62 -6 8 -8 13 -10 46 -12 18 -1 20
-8 20 -81 l0 -80 -77 -1 c-43 -1 -118 -4 -168 -8 l-90 -8 78 -1 77 -2 0 -80 0
-80 -39 0 c-21 0 -59 -3 -85 -6 l-47 -7 2 93 2 93 -69 -2 c-86 -3 -98 -11 -17
-11 40 0 62 -4 65 -12 6 -15 11 -148 6 -149 -2 0 -77 -3 -168 -6 -172 -5 -228
-13 -97 -13 l77 0 2 -57 c1 -63 1 -94 -1 -105 0 -5 -39 -8 -86 -8 l-86 0 5 90
5 90 -102 -2 -102 -2 93 -3 92 -4 0 -89 0 -90 84 0 c47 0 87 -4 90 -9 3 -5 7
-45 8 -90 1 -44 6 -81 10 -81 4 0 8 41 8 90 l0 91 83 -3 82 -3 3 -87 3 -88 74
0 c107 0 105 1 105 -91 0 -56 -4 -79 -12 -79 -111 -3 -324 -13 -327 -16 -2 -2
32 -4 77 -4 l82 0 0 -85 0 -85 -85 0 -85 0 0 90 0 90 -67 -2 -68 -2 56 -3 56
-4 7 -75 c4 -41 4 -79 1 -84 -3 -5 -81 -9 -180 -9 l-175 0 0 93 0 94 -59 1
c-32 0 -71 -4 -87 -9 -22 -6 -9 -8 54 -9 l82 -1 0 -84 0 -84 -85 -1 -85 -1 0
95 0 95 -275 0 -275 0 0 85 0 86 83 -3 82 -3 6 -80 5 -80 2 88 2 87 -91 0 -90
0 3 90 3 90 -90 -2 -90 -2 80 -5 80 -6 3 -82 3 -83 -271 0 -270 0 0 85 0 85
85 0 84 0 3 -77 3 -78 5 83 5 82 -188 0 -188 0 3 88 3 87 548 0 547 0 0 93 0
92 185 0 185 0 0 90 0 90 183 2 182 3 1 40 c1 22 2 64 3 93 l1 53 90 -3 90 -3
0 93 0 92 184 0 184 0 -2 78 c-2 42 -1 83 2 90 6 17 348 17 355 -1z m-733
-127 c0 -29 -2 -30 -42 -30 -47 0 -48 8 0 12 26 2 32 7 32 25 0 13 2 23 5 23
3 0 5 -13 5 -30z m-180 -170 l0 -40 -77 1 c-54 1 -67 4 -43 8 36 6 89 36 103
58 13 21 17 15 17 -27z m980 -70 c-21 -13 -40 -62 -42 -109 -1 -31 -3 -21 -8
34 -3 44 -5 83 -3 86 1 3 16 4 34 1 18 -3 26 -8 19 -12z m-1350 -129 l0 -29
-67 0 c-38 0 -60 2 -50 5 9 2 17 9 17 14 0 5 13 9 29 9 16 0 31 6 35 15 10 27
36 17 36 -14z m-362 -184 l3 -27 -173 2 c-130 2 -146 3 -64 5 61 2 115 8 120
12 6 5 26 12 43 16 18 3 35 11 39 16 10 17 29 3 32 -24z m-600 -24 c-21 -2
-57 -2 -80 0 -24 2 -7 4 37 4 44 0 63 -2 43 -4z m175 0 c-13 -2 -33 -2 -45 0
-13 2 -3 4 22 4 25 0 35 -2 23 -4z m1642 -22 l60 -1 3 -80 3 -80 -53 -1 c-29
-1 -65 -2 -80 -2 -16 -1 -28 -5 -28 -9 0 -4 33 -8 74 -8 l74 0 5 -47 c3 -27 6
-65 6 -85 l0 -38 -89 0 -90 0 2 173 c1 94 3 175 4 178 2 3 13 5 26 3 13 -1 50
-3 83 -3z m319 -5 c-3 -8 -12 -17 -20 -20 -9 -4 -12 -14 -8 -36 4 -19 2 -30
-5 -30 -6 0 -11 -12 -12 -27 0 -16 -4 -37 -9 -48 -6 -13 -9 14 -9 78 l-1 97
35 0 c26 0 33 -4 29 -14z m-624 -261 l0 -85 -85 0 -85 0 0 85 0 85 85 0 85 0
0 -85z m180 0 l0 -85 -85 0 -85 0 0 85 0 85 85 0 85 0 0 -85z m0 -180 l0 -85
-85 0 -85 0 0 85 0 85 85 0 85 0 0 -85z m184 48 c3 -21 6 -59 6 -85 l0 -48
-90 0 -90 0 0 78 c0 43 3 82 7 85 3 4 41 7 83 7 l77 0 7 -37z m-2194 -163 c0
-11 -4 -20 -10 -20 -5 0 -10 6 -10 14 0 8 -10 17 -22 19 -17 3 -14 5 10 6 26
1 32 -3 32 -19z m2320 12 c-16 -8 -18 -31 -6 -104 6 -37 11 -48 29 -51 12 -2
-13 -5 -56 -8 l-77 -4 0 88 0 87 63 -1 c34 0 55 -3 47 -7z m-1770 -263 l0 -91
-82 6 c-46 3 -84 5 -85 6 -2 0 -4 17 -4 38 -1 38 -16 107 -18 85 -2 -21 -22
-15 -47 13 -13 14 -24 27 -24 30 0 2 59 4 130 4 l130 0 0 -91z m1616 81 l31 0
-1 -82 -1 -83 -88 -3 -88 -3 2 83 c1 46 4 87 7 92 2 5 28 6 56 2 28 -3 65 -6
82 -6z m-156 -85 l0 -85 -85 0 -85 0 0 85 0 85 85 0 85 0 0 -85z m403 -25 c3
-11 0 -20 -6 -21 -7 0 4 -7 23 -15 19 -8 25 -12 13 -10 -12 2 -24 -1 -26 -7
-8 -24 -27 7 -27 44 0 41 13 46 23 9z m-1678 -245 l0 -180 -87 -3 -88 -4 0
187 0 186 88 -3 87 -3 0 -180z m1097 93 l2 -83 3 83 4 82 84 0 85 0 0 -85 0
-85 -175 0 -175 0 0 85 0 85 85 0 85 0 2 -82z m358 -3 l0 -85 -85 0 -85 0 0
85 0 85 85 0 85 0 0 -85z m190 0 l0 -85 -82 -2 -83 -2 75 -3 c43 -3 78 -9 82
-16 4 -7 8 -45 8 -84 l0 -73 -87 0 -88 0 3 175 3 175 84 0 85 0 0 -85z m-2014
-28 l6 -57 -48 0 -49 1 27 16 c29 18 48 52 48 85 0 40 10 12 16 -45z m2257
-41 l32 -16 -40 0 -40 0 5 48 c4 38 5 41 8 15 2 -23 11 -35 35 -47z m-1343
-104 c0 -42 1 -122 2 -177 l1 -100 -89 0 c-79 0 -89 2 -88 18 1 9 2 90 3 180
l1 162 85 -3 85 -3 0 -77z m911 26 c1 -29 2 -66 3 -83 1 -28 -2 -31 -39 -37
l-40 -6 43 2 42 2 0 -93 0 -93 -90 0 -91 0 1 174 c1 96 4 177 8 180 3 3 41 6
84 6 l78 0 1 -52z m369 -33 l0 -85 -75 0 c-46 0 -75 -4 -75 -11 0 -5 5 -7 11
-4 6 4 39 4 75 0 l64 -7 0 -77 0 -78 -37 -7 c-21 -3 -59 -6 -85 -6 l-48 0 0
180 0 180 85 0 85 0 0 -85z m-2378 -45 c4 -40 3 -40 -32 -39 -19 0 -28 3 -20
6 24 10 40 30 40 52 0 36 8 23 12 -19z m2601 -32 c8 -5 6 -8 -5 -8 -15 0 -18
8 -16 43 1 40 1 40 5 7 3 -19 10 -38 16 -42z m-2413 -108 l0 -90 -90 0 -90 0
0 90 0 90 90 0 90 0 0 -90z m2372 8 c2 -46 4 -84 3 -85 -1 -1 -39 -4 -86 -5
l-84 -3 -3 74 c-2 41 -1 80 2 88 4 9 28 13 85 13 l79 0 4 -82z m-2742 -69 c0
-18 -4 -28 -10 -24 -6 4 -8 11 -5 16 4 5 1 9 -4 9 -6 0 -11 -4 -11 -10 0 -5
-10 -10 -22 -10 -20 0 -18 3 10 16 17 9 32 20 32 25 0 5 2 9 5 9 3 0 5 -14 5
-31z m185 -126 c0 -56 4 -92 10 -92 6 1 88 1 183 0 l172 -1 0 -90 0 -90 280 0
280 0 0 93 0 92 547 0 546 0 1 90 1 90 88 3 87 3 0 -181 0 -180 -90 0 -90 0 0
-95 0 -95 90 0 90 0 0 -365 0 -365 -92 0 -93 0 3 -275 3 -275 -93 0 -93 0 3
-90 3 -90 -182 2 -183 3 0 85 c-1 47 -4 86 -8 88 -5 1 -46 2 -92 2 l-85 0 -3
-92 -3 -93 90 0 90 0 3 -87 3 -88 -916 0 -916 0 3 88 3 87 93 0 92 0 0 458 0
457 90 0 90 0 0 90 0 90 90 0 90 0 0 180 c0 99 0 183 0 186 0 7 -171 6 -178 0
-1 -2 -3 -83 -3 -180 l0 -176 -184 0 -185 0 3 178 2 177 183 3 182 2 0 95 0
95 -90 0 -90 0 0 180 0 181 87 -3 88 -3 0 -92z m2582 35 c-2 -13 -4 -5 -4 17
-1 22 1 32 4 23 2 -10 2 -28 0 -40z m-147 -141 c-19 -10 -26 -23 -30 -57 l-6
-45 -4 58 -5 57 35 0 c35 0 35 0 10 -13z m-102 -184 c2 -7 -5 -13 -15 -13 -14
0 -15 -2 -4 -9 9 -6 10 -11 2 -15 -15 -10 -14 -103 2 -109 6 -3 -16 -6 -50 -6
l-63 -1 0 85 0 86 62 -3 c38 -2 63 -8 66 -15z m-2698 -73 l0 -80 -42 0 c-24 0
-38 4 -32 8 6 4 17 24 23 45 7 20 17 35 22 32 5 -4 9 5 9 19 0 25 9 56 16 56
2 0 4 -36 4 -80z m0 -546 c0 -54 -4 -83 -10 -79 -5 3 -10 14 -10 24 0 30 -32
115 -48 129 -13 10 -9 12 26 12 l42 0 0 -86z m2630 -295 c-14 -4 -18 -7 -10
-8 11 -1 11 -4 2 -13 -7 -7 -12 -22 -12 -34 0 -12 -6 -24 -12 -26 -10 -4 -13
-43 -13 -154 0 -136 2 -153 24 -199 12 -27 30 -58 39 -67 14 -17 12 -18 -31
-18 l-47 0 0 263 c0 145 2 266 5 268 2 3 21 3 42 0 35 -4 36 -5 13 -12z
m-2633 -521 c-3 -8 -6 -5 -6 6 -1 11 2 17 5 13 3 -3 4 -12 1 -19z m2563 -100
l0 -93 61 3 c33 2 76 1 95 -3 l34 -6 -2 -84 -2 -85 -273 0 -274 0 3 88 3 87
89 0 89 0 -2 82 c-1 46 1 87 4 93 3 5 44 10 91 10 l84 0 0 -92z m-2564 -74
c-3 -7 -13 -10 -25 -7 -24 6 -28 23 -6 23 11 0 15 12 15 48 0 27 3 52 8 56 8
9 16 -100 8 -120z m1 -210 c-3 -3 -12 -4 -19 -1 -8 3 -5 6 6 6 11 1 17 -2 13
-5z m2194 -36 c-4 -30 -6 -36 -9 -19 -3 18 -6 21 -12 10 -7 -11 -12 -11 -22
-1 -6 6 -36 12 -64 12 -29 0 -56 5 -59 10 -4 6 -12 7 -18 3 -13 -8 -25 -10
-92 -12 -34 -1 -45 -5 -45 -17 0 -8 -4 -13 -9 -9 -5 3 -12 -5 -14 -17 -2 -13
-5 1 -6 30 l-1 52 178 0 178 0 -5 -42z"/>
<path d="M3908 4855 c2 -14 6 -25 8 -25 2 0 4 11 4 25 0 14 -4 25 -9 25 -4 0
-6 -11 -3 -25z"/>
<path d="M2108 4323 c6 -2 18 -2 25 0 6 3 1 5 -13 5 -14 0 -19 -2 -12 -5z"/>
<path d="M2173 4323 c15 -2 37 -2 50 0 12 2 0 4 -28 4 -27 0 -38 -2 -22 -4z"/>
<path d="M2250 4258 c0 -39 2 -69 4 -67 10 10 16 139 6 139 -6 0 -10 -30 -10
-72z"/>
<path d="M2542 4323 l77 -4 4 -37 4 -37 1 43 2 42 -82 -2 -83 -2 77 -3z"/>
<path d="M2800 4063 c0 -47 2 -84 4 -82 9 10 15 169 6 169 -6 0 -10 -36 -10
-87z"/>
<path d="M2985 4069 c5 -110 15 -113 15 -6 0 49 -4 87 -10 87 -5 0 -8 -33 -5
-81z"/>
<path d="M3145 4140 c-18 -8 -17 -9 8 -9 15 -1 27 4 27 9 0 12 -8 12 -35 0z"/>
<path d="M2938 4133 c6 -2 18 -2 25 0 6 3 1 5 -13 5 -14 0 -19 -2 -12 -5z"/>
<path d="M3223 3953 c15 -2 39 -2 55 0 15 2 2 4 -28 4 -30 0 -43 -2 -27 -4z"/>
<path d="M3318 3953 c7 -3 16 -2 19 1 4 3 -2 6 -13 5 -11 0 -14 -3 -6 -6z"/>
<path d="M3350 3878 c0 -45 2 -79 4 -77 8 9 13 159 5 159 -5 0 -9 -37 -9 -82z"/>
<path d="M3388 3953 c7 -3 16 -2 19 1 4 3 -2 6 -13 5 -11 0 -14 -3 -6 -6z"/>
<path d="M3171 2778 l2 -93 -183 -2 -183 -1 2 -91 2 -91 -96 0 -95 0 2 -95 3
-95 182 0 183 0 0 -180 0 -180 -184 0 -185 0 2 -95 2 -96 190 1 c105 0 228 1
275 0 l85 0 -3 -180 -3 -180 96 0 95 0 0 185 0 185 -90 0 -90 0 0 455 0 455
275 0 275 0 0 95 0 95 -281 0 -280 0 2 -92z"/>
<path d="M2168 2132 c-49 -1 -88 -6 -88 -10 -1 -4 -2 -87 -3 -185 -2 -152 0
-177 13 -176 8 1 50 1 93 0 l78 -1 -3 -90 -3 -90 93 0 92 0 0 -90 0 -90 89 0
c62 0 90 -4 93 -12 2 -7 4 -49 3 -93 l-2 -80 187 0 188 0 1 93 2 92 -186 0
-185 0 0 95 0 95 -90 0 -90 0 0 90 0 90 -95 0 -95 0 -2 183 -3 182 -87 -3z"/>
</g>
</svg>
